<mxfile host="app.diagrams.net" agent="Mozilla/5.0 (Windows NT 10.0; Win64; x64) AppleWebKit/537.36 (KHTML, like Gecko) Chrome/135.0.0.0 Safari/537.36" version="26.2.14">
  <diagram name="第 1 页" id="C2y3_bDA_ITh3qmavia3">
    <mxGraphModel dx="741" dy="528" grid="1" gridSize="10" guides="1" tooltips="1" connect="1" arrows="1" fold="1" page="1" pageScale="1" pageWidth="827" pageHeight="1169" math="0" shadow="0">
      <root>
        <mxCell id="0" />
        <mxCell id="1" parent="0" />
        <mxCell id="UMARyukFjeKRDNESbKN2-7" style="edgeStyle=orthogonalEdgeStyle;rounded=0;orthogonalLoop=1;jettySize=auto;html=1;exitX=0;exitY=0.5;exitDx=0;exitDy=0;endArrow=none;startFill=0;" edge="1" parent="1" source="UMARyukFjeKRDNESbKN2-1" target="UMARyukFjeKRDNESbKN2-2">
          <mxGeometry relative="1" as="geometry" />
        </mxCell>
        <mxCell id="UMARyukFjeKRDNESbKN2-8" style="edgeStyle=orthogonalEdgeStyle;rounded=0;orthogonalLoop=1;jettySize=auto;html=1;exitX=0.5;exitY=0;exitDx=0;exitDy=0;endArrow=none;startFill=0;" edge="1" parent="1" source="UMARyukFjeKRDNESbKN2-1" target="UMARyukFjeKRDNESbKN2-3">
          <mxGeometry relative="1" as="geometry" />
        </mxCell>
        <mxCell id="UMARyukFjeKRDNESbKN2-9" style="edgeStyle=orthogonalEdgeStyle;rounded=0;orthogonalLoop=1;jettySize=auto;html=1;exitX=1;exitY=0.5;exitDx=0;exitDy=0;endArrow=none;startFill=0;" edge="1" parent="1" source="UMARyukFjeKRDNESbKN2-1" target="UMARyukFjeKRDNESbKN2-6">
          <mxGeometry relative="1" as="geometry" />
        </mxCell>
        <mxCell id="UMARyukFjeKRDNESbKN2-10" style="edgeStyle=orthogonalEdgeStyle;rounded=0;orthogonalLoop=1;jettySize=auto;html=1;exitX=0.75;exitY=1;exitDx=0;exitDy=0;endArrow=none;startFill=0;" edge="1" parent="1" source="UMARyukFjeKRDNESbKN2-1" target="UMARyukFjeKRDNESbKN2-4">
          <mxGeometry relative="1" as="geometry">
            <Array as="points">
              <mxPoint x="370" y="240" />
            </Array>
          </mxGeometry>
        </mxCell>
        <mxCell id="UMARyukFjeKRDNESbKN2-1" value="漏洞信息" style="rounded=0;whiteSpace=wrap;html=1;" vertex="1" parent="1">
          <mxGeometry x="310" y="180" width="120" height="60" as="geometry" />
        </mxCell>
        <mxCell id="UMARyukFjeKRDNESbKN2-2" value="漏洞描述" style="ellipse;whiteSpace=wrap;html=1;" vertex="1" parent="1">
          <mxGeometry x="130" y="180" width="100" height="60" as="geometry" />
        </mxCell>
        <mxCell id="UMARyukFjeKRDNESbKN2-3" value="漏洞url" style="ellipse;whiteSpace=wrap;html=1;" vertex="1" parent="1">
          <mxGeometry x="320" y="20" width="100" height="60" as="geometry" />
        </mxCell>
        <mxCell id="UMARyukFjeKRDNESbKN2-4" value="漏洞标题" style="ellipse;whiteSpace=wrap;html=1;" vertex="1" parent="1">
          <mxGeometry x="320" y="330" width="100" height="60" as="geometry" />
        </mxCell>
        <mxCell id="UMARyukFjeKRDNESbKN2-6" value="漏洞截图地址" style="ellipse;whiteSpace=wrap;html=1;" vertex="1" parent="1">
          <mxGeometry x="510" y="180" width="100" height="60" as="geometry" />
        </mxCell>
      </root>
    </mxGraphModel>
  </diagram>
</mxfile>
